#N canvas 15 49 200 200 10;
#N canvas 572 93 420 300 META 1;
#X text 10 10 VERSION 1;
#X text 10 25 AUTHOR David Bau @ University of Applied Sciences Duesseldorf
(Hochschule Duesseldorf);
#X text 13 61 NAME HSD-Library;
#X restore 10 10 pd META;
